# xmcd
#
# Track frame offsets: 
#        150
#        13506
#        30737
#        42926
#        49760
#        62510
#        80256
#        99161
#        126540
#        137661
#        164211
#        185036
#        198659
#        227478
#        241757
#        264876
#        282073
#        292212
#        313090
#        323506
#
# Disc length: 4648 seconds
#
# Revision: 2
# Processed by: cddbd v1.5.2PL0 Copyright (c) Steve Scherf et al.
# Submitted via: ExactAudioCopyFreeDBPlugin 1.0
#
DISCID=1a122614
DTITLE=Various Artist - Swiss Pop and Rock Anthology - mundart 1969-1985
DYEAR=2003
DGENRE=CH Rock
TTITLE0=Peter Hinnen - Nudel Jodel
TTITLE1=Rumpelstilz - Stets im Truure
TTITLE2=Minstrels - Grüezi wohl Frau Stirnimaa
TTITLE3=Anton Bruhin - Liebeslied
TTITLE4=Toni Vescoli - Susann
TTITLE5=Toblermit - Mitti Monet
TTITLE6=Span - Louenesee
TTITLE7=Lietha-Lässer Band - Schwarzi Bluama
TTITLE8=Lise Schlatt - Flipi Tripi
TTITLE9=Rumpelstilz - Es Blatt im Wind
TTITLE10=Taxi - Du Du Diva Du
TTITLE11=Frostschutz - Handtäschlifrou
TTITLE12=Schmetterding - Psycho-motorische Wältschmärz-Reggae Nr 117
TTITLE13=Claude - Nüt
TTITLE14=Hardy Hepp - Mensch Meyer
TTITLE15=Span - Yvette
TTITLE16=Michel Villa - Dr Tifel isch gschtorbe
TTITLE17=Polo's SchmetterBand - Alperose
TTITLE18=Extrem Normal - Welcome to Switzerländ
TTITLE19=Züri West - Flachgleit
EXTD=
EXTT0=
EXTT1=
EXTT2=
EXTT3=
EXTT4=
EXTT5=
EXTT6=
EXTT7=
EXTT8=
EXTT9=
EXTT10=
EXTT11=
EXTT12=
EXTT13=
EXTT14=
EXTT15=
EXTT16=
EXTT17=
EXTT18=
EXTT19=
PLAYORDER=
